<svg width="357" height="538" viewBox="0 0 357 538" fill="none" xmlns="http://www.w3.org/2000/svg">
<g clip-path="url(#clip0_12363_23106)">
<path d="M43.8464 464.696C20.5412 421.806 62.0654 376.026 136.593 362.442C211.121 348.859 290.431 372.617 313.736 415.507C337.041 458.397 295.517 504.178 220.989 517.761C146.461 531.344 67.1516 507.586 43.8464 464.696Z" fill="black" stroke="black" stroke-width="1.32818" stroke-miterlimit="10"/>
</g>
<g clip-path="url(#clip1_12363_23106)">
<path d="M43.8464 457.739C20.5412 414.849 62.0654 369.068 136.593 355.485C211.121 341.902 290.431 365.66 313.736 408.55C337.041 451.44 295.517 497.22 220.989 510.803C146.461 524.387 67.1516 500.629 43.8464 457.739Z" fill="black" stroke="black" stroke-width="1.32818" stroke-miterlimit="10"/>
</g>
<g clip-path="url(#clip2_12363_23106)">
<path d="M43.8464 457.739C20.5412 414.849 62.0654 369.068 136.593 355.485C211.121 341.902 290.431 365.66 313.736 408.55C337.041 451.44 295.517 497.22 220.989 510.803C146.461 524.387 67.1516 500.629 43.8464 457.739Z" fill="black" stroke="black" stroke-width="1.32818" stroke-miterlimit="10"/>
</g>
<path d="M68.2264 368.172L42.5977 409.451H315.834L287.062 366.942L68.2264 368.172Z" fill="#1D1D1B"/>
<g clip-path="url(#clip3_12363_23106)">
<path d="M69.9036 406.625C51.1526 372.117 84.5623 335.282 144.526 324.354C204.49 313.425 268.301 332.54 287.052 367.048C305.803 401.557 272.394 438.391 212.43 449.32C152.466 460.249 88.6546 441.134 69.9036 406.625Z" fill="#27FF9D" stroke="#1D1D1B" stroke-width="1.32818" stroke-miterlimit="10"/>
<path d="M85.2051 403.837C69.0967 374.191 97.798 342.548 149.311 333.159C200.824 323.771 255.643 340.192 271.751 369.837C287.86 399.482 259.158 431.126 207.645 440.514C156.132 449.903 101.314 433.482 85.2051 403.837Z" fill="white" stroke="#1D1D1B" stroke-width="1.32818" stroke-miterlimit="10"/>
<path d="M193.822 382.805C165.661 387.938 163.973 391.746 166.06 395.587C168.147 399.427 173.347 402.083 201.345 396.98C229.343 391.877 267.635 377.074 267.635 377.074L264.275 370.891C264.438 370.861 216.611 378.652 193.822 382.805Z" fill="#1D1D1B" stroke="#1D1D1B" stroke-width="1.32818" stroke-miterlimit="10"/>
<path d="M188.296 376.914C188.947 376.796 189.598 376.677 190.412 376.529C218.41 371.426 264.439 370.862 264.439 370.862C264.439 370.862 226.147 385.665 198.149 390.768C197.824 390.827 197.335 390.916 197.01 390.976C194.915 394.034 190.408 396.606 184.548 397.674C174.13 399.573 163.019 396.244 159.761 390.249C156.503 384.253 162.158 377.869 172.576 375.97C177.948 374.991 183.758 375.477 188.296 376.914Z" fill="#27FF9D" stroke="#1D1D1B" stroke-width="1.32818" stroke-linejoin="bevel"/>
<path d="M270.778 370.015C271.236 370.858 271.694 371.701 271.99 372.574C254.236 344.511 201.06 329.288 151.087 338.396C101.113 347.504 72.7366 377.591 85.7692 406.514C85.3111 405.671 84.6902 404.858 84.232 404.015C68.147 374.412 96.7368 342.742 148.338 333.337C199.939 323.933 254.693 340.413 270.778 370.015Z" fill="#1D1D1B" stroke="#1D1D1B" stroke-width="1.32818" stroke-miterlimit="10"/>
<path d="M151.667 396.767C146.691 387.61 155.557 377.835 171.469 374.935C187.382 372.035 204.315 377.107 209.291 386.265C214.267 395.422 205.401 405.197 189.489 408.097C173.576 410.997 156.643 405.925 151.667 396.767Z" fill="#1D1D1B" stroke="#1D1D1B" stroke-width="1.32818" stroke-miterlimit="10"/>
<path d="M149.28 392.364C144.304 383.207 153.17 373.432 169.083 370.532C184.995 367.632 201.928 372.705 206.904 381.862C211.88 391.02 203.014 400.794 187.102 403.694C171.19 406.594 154.256 401.522 149.28 392.364Z" fill="#27FF9D" stroke="#1D1D1B" stroke-width="1.32818" stroke-miterlimit="10"/>
</g>
<path d="M207.104 384.711V350.334H149.422V384.916H149.764C149.764 389.153 152.566 393.39 158.17 396.602C169.378 403.095 187.557 403.095 198.766 396.602C204.438 393.322 207.24 389.016 207.104 384.711Z" fill="#27FF9D" stroke="#1D1D1B" stroke-width="0.683433" stroke-miterlimit="10"/>
<path d="M178.399 367.078C194.252 367.078 207.104 359.673 207.104 350.539C207.104 341.405 194.252 334 178.399 334C162.547 334 149.695 341.405 149.695 350.539C149.695 359.673 162.547 367.078 178.399 367.078Z" fill="#27FF9D" stroke="#1D1D1B" stroke-width="0.683433" stroke-miterlimit="10"/>
<mask id="mask0_12363_23106" style="mask-type:luminance" maskUnits="userSpaceOnUse" x="156" y="337" width="45" height="26">
<path d="M200.681 337.69H156.805V362.977H200.681V337.69Z" fill="white"/>
</mask>
<g mask="url(#mask0_12363_23106)">
<g clip-path="url(#clip4_12363_23106)">
<path d="M159.723 344.529L191.414 362.826L197.635 359.239" fill="white"/>
<path d="M159.723 344.529L191.414 362.826L197.635 359.239" stroke="#1D1D1B" stroke-width="0.280207" stroke-miterlimit="10"/>
<path d="M159.723 344.529L157.117 343.015L166.084 337.86L200.381 357.642L197.635 359.239L165.972 340.942L159.723 344.529Z" fill="#92F8CE" stroke="#0A0A09" stroke-width="0.302624" stroke-miterlimit="6"/>
<path d="M159.723 344.529L165.971 340.942L197.635 359.239L191.414 362.826L159.723 344.529Z" fill="#1D1D1B" stroke="#1D1D1B" stroke-width="0.280207" stroke-miterlimit="10"/>
<path d="M166.086 337.86V341.278" stroke="#1D1D1B" stroke-width="0.280207" stroke-miterlimit="10"/>
</g>
</g>
<path d="M165.139 245.359C164.592 245.359 164.045 245.29 163.498 245.154C157.279 243.787 150.787 235.381 149.078 226.359C148.121 221.439 148.805 217.133 150.855 214.673C152.017 213.237 153.589 212.486 155.434 212.486C155.981 212.486 156.527 212.554 157.074 212.691C163.293 214.058 169.786 222.464 171.495 231.485C172.451 236.406 171.768 240.711 169.718 243.172C168.556 244.607 166.984 245.359 165.139 245.359Z" fill="#575756"/>
<path d="M155.433 212.827C155.911 212.827 156.458 212.896 157.005 212.964C163.156 214.263 169.512 222.601 171.22 231.485C172.109 236.338 171.494 240.507 169.512 242.899C168.418 244.265 166.915 244.949 165.138 244.949C164.659 244.949 164.113 244.88 163.566 244.812C157.415 243.514 151.059 235.176 149.35 226.291C148.462 221.439 149.077 217.27 151.059 214.878C152.221 213.511 153.724 212.827 155.433 212.827ZM155.433 212.144C150.102 212.144 147.163 218.09 148.735 226.428C150.444 235.586 157.073 244.129 163.429 245.496C164.044 245.632 164.591 245.701 165.138 245.701C170.468 245.701 173.407 239.755 171.835 231.417C170.127 222.259 163.497 213.716 157.142 212.349C156.595 212.212 155.98 212.144 155.433 212.144Z" fill="#1D1D1B"/>
<path d="M146.889 227.248C145.18 218.09 148.939 211.802 155.295 213.169C161.719 214.536 168.28 223.079 169.989 232.237C171.697 241.395 167.938 247.683 161.583 246.316C155.227 244.949 148.666 236.406 146.889 227.248Z" fill="#1D1D1B"/>
<path d="M168.28 231.895C168.622 233.809 168.69 235.586 168.553 237.226C168.348 238.798 167.938 240.165 167.323 241.258C166.708 242.352 165.82 243.172 164.795 243.582C163.701 244.06 162.539 244.129 161.172 243.855C159.806 243.582 158.507 242.898 157.14 241.942C155.842 240.985 154.611 239.755 153.45 238.251C152.288 236.748 151.331 235.107 150.511 233.33C149.691 231.485 149.076 229.572 148.734 227.726C148.392 225.881 148.324 224.036 148.461 222.396C148.666 220.824 149.076 219.457 149.691 218.363C150.306 217.27 151.194 216.45 152.219 216.04C153.313 215.561 154.475 215.493 155.842 215.766C157.208 216.04 158.507 216.723 159.874 217.68C161.172 218.637 162.403 219.867 163.564 221.37C164.726 222.874 165.683 224.514 166.503 226.291C167.323 228.068 167.938 229.982 168.28 231.895ZM149.486 227.863C149.827 229.572 150.374 231.348 151.126 233.057C151.878 234.697 152.766 236.201 153.86 237.568C154.885 238.935 156.047 240.028 157.208 240.917C158.439 241.805 159.669 242.42 160.899 242.693C162.129 242.967 163.223 242.899 164.179 242.42C165.136 242.01 165.888 241.258 166.503 240.301C167.118 239.345 167.528 238.046 167.665 236.611C167.802 235.107 167.733 233.467 167.392 231.759C167.05 230.05 166.503 228.273 165.751 226.564C165 224.924 164.111 223.421 163.018 222.054C161.924 220.687 160.831 219.593 159.669 218.705C158.439 217.817 157.208 217.201 155.978 216.928C154.748 216.655 153.655 216.723 152.698 217.201C151.741 217.611 150.989 218.363 150.374 219.32C149.759 220.277 149.349 221.575 149.212 223.011C149.076 224.446 149.144 226.086 149.486 227.863Z" fill="white"/>
<path d="M155.914 228.41C156.666 229.367 157.144 230.392 157.349 231.554C157.554 232.647 157.486 233.604 157.007 234.287L156.392 235.312L155.299 233.946L155.914 232.92C156.187 232.51 156.256 231.964 156.119 231.28C155.982 230.597 155.709 229.982 155.299 229.435L153.385 226.975C152.77 226.223 152.565 225.129 152.907 224.514L155.914 228.41Z" fill="white"/>
<path d="M158.374 226.359C157.964 227.043 157.349 227.316 156.529 227.18C155.777 227.043 154.957 226.428 154.273 225.539L153.18 224.172L153.795 223.147L154.888 224.514C155.298 225.061 155.777 225.403 156.255 225.471C156.734 225.539 157.075 225.403 157.349 224.993L158.442 223.147C158.784 222.601 159.536 222.737 160.151 223.489L158.374 226.359Z" fill="white"/>
<path d="M161.036 231.075C160.285 230.118 159.806 229.093 159.601 227.931C159.396 226.838 159.464 225.881 159.943 225.198L160.558 224.172L161.651 225.539L161.036 226.564C160.763 226.974 160.695 227.521 160.831 228.205C160.968 228.888 161.241 229.503 161.651 230.05L163.565 232.51C164.18 233.262 164.385 234.356 164.043 234.971L161.036 231.075Z" fill="white"/>
<path d="M158.644 233.057C159.054 232.374 159.669 232.1 160.489 232.237C161.241 232.374 162.061 232.989 162.745 233.877L163.838 235.244L163.223 236.269L162.13 234.902C161.72 234.356 161.241 234.014 160.763 233.946C160.284 233.877 159.943 234.014 159.669 234.424L158.576 236.269C158.234 236.816 157.482 236.679 156.867 235.927L158.644 233.057Z" fill="white"/>
<path d="M138.753 236.064C105.402 236.064 83.6688 217.953 80.73 187.54C75.741 136.625 123.923 66.8462 188.097 32.0595C211.676 19.2793 234.912 12.5133 255.279 12.5133C288.63 12.5133 310.363 30.6926 313.302 61.037C318.291 111.953 270.109 181.663 205.935 216.518C182.357 229.298 159.188 236.064 138.753 236.064Z" fill="#575756"/>
<path d="M255.281 12.8551C271.273 12.8551 285.01 17.0923 294.989 25.2252C305.24 33.5631 311.459 45.9332 312.963 61.1054C317.952 111.884 269.838 181.458 205.732 216.245C182.222 229.025 159.054 235.723 138.756 235.723C122.763 235.723 109.026 231.485 99.0483 223.352C88.7968 215.015 82.5776 202.644 81.074 187.472C76.085 136.693 124.199 67.1196 188.305 32.3329C211.746 19.6211 234.983 12.8551 255.281 12.8551ZM255.281 12.1716C235.53 12.1716 212.361 18.5276 187.963 31.7178C123.515 66.6412 75.4015 136.42 80.3906 187.541C83.5344 219.32 106.429 236.406 138.756 236.406C158.507 236.406 181.675 230.05 206.074 216.86C270.522 181.936 318.635 112.158 313.646 61.0371C310.571 29.2575 287.607 12.1716 255.281 12.1716Z" fill="#1D1D1B"/>
<path d="M177.302 20.1676C241.75 -14.7558 297.997 -1.63387 302.986 49.4869C307.975 100.608 259.793 170.386 195.413 205.31C130.966 240.233 74.7191 227.111 69.73 175.99C64.7409 124.801 112.923 55.0911 177.302 20.1676Z" fill="#1D1D1B"/>
<path d="M194.047 191.026C180.72 198.27 167.599 203.191 154.955 205.72C142.79 208.18 131.718 208.248 121.877 205.925C112.104 203.669 104.176 199.09 98.2985 192.461C92.216 185.558 88.5937 176.742 87.5686 166.149C86.5435 155.556 88.1153 143.869 92.3526 131.43C96.4532 119.402 102.741 107.169 111.079 95.0719C119.417 82.9751 129.463 71.5618 140.808 61.2419C152.563 50.5804 165.343 41.4907 178.67 34.2463C191.997 27.0019 205.119 22.0812 217.763 19.5525C229.928 17.0922 240.999 17.0238 250.841 19.3475C260.614 21.6028 268.542 26.1135 274.419 32.8111C280.502 39.7138 284.124 48.5301 285.149 59.1233C286.174 69.7165 284.602 81.4032 280.365 93.8417C276.264 105.87 269.977 118.104 261.639 130.2C253.301 142.297 243.255 153.71 231.91 164.03C220.086 174.692 207.374 183.781 194.047 191.026ZM179.354 40.8073C167.12 47.4366 155.433 55.7745 144.635 65.5476C134.179 75.0473 125.021 85.4355 117.366 96.5754C109.712 107.715 103.903 118.924 100.212 129.927C96.3849 141.34 94.8813 152.07 95.8381 161.775C96.7949 171.48 100.075 179.613 105.68 185.9C111.079 191.983 118.391 196.152 127.344 198.202C136.297 200.321 146.481 200.252 157.62 197.997C169.17 195.673 181.199 191.163 193.432 184.533C205.666 177.904 217.353 169.566 228.151 159.793C238.607 150.293 247.765 139.905 255.42 128.765C263.074 117.625 268.883 106.417 272.574 95.4136C276.401 84.0003 277.905 73.2704 276.948 63.5656C275.991 53.8609 272.711 45.728 267.106 39.4404C261.707 33.3579 254.395 29.1889 245.442 27.1386C236.489 25.02 226.305 25.1567 215.166 27.3437C203.616 29.6673 191.519 34.178 179.354 40.8073Z" fill="white"/>
<path d="M190.015 90.0829C184.616 97.874 177.987 103.888 169.991 108.194C162.063 112.5 154.955 113.866 148.804 112.431L139.578 110.313L147.369 99.0359L156.596 101.155C160.286 101.975 164.387 101.155 169.034 98.6258C173.681 96.0971 177.577 92.5433 180.721 87.9643L194.458 68.008C198.832 61.6521 206.555 57.4832 211.68 58.645L190.015 90.0829Z" fill="white"/>
<path d="M211.407 103.683C205.119 102.248 201.633 98.284 201.087 91.9964C200.472 85.7088 202.864 78.6695 208.126 71.015L215.986 59.6017L225.144 61.7203L217.284 73.1337C214.14 77.6443 212.773 81.7449 213.183 85.4354C213.525 89.126 215.575 91.3813 219.334 92.2698L235.532 95.9603C240.657 97.1221 241.273 103.205 236.899 109.561L211.407 103.683Z" fill="white"/>
<path d="M182.632 135.189C188.031 127.398 194.66 121.384 202.656 117.078C210.584 112.773 217.692 111.406 223.843 112.841L233.069 114.96L225.278 126.305L216.051 124.186C212.361 123.366 208.26 124.186 203.613 126.715C198.966 129.244 195.07 132.797 191.926 137.376L178.121 157.333C173.747 163.689 166.024 167.858 160.898 166.696L182.632 135.189Z" fill="white"/>
<path d="M162.062 121.862C168.35 123.298 171.835 127.262 172.382 133.549C172.997 139.837 170.605 146.876 165.343 154.53L157.483 165.944L148.325 163.825L156.185 152.412C159.328 147.901 160.695 143.801 160.285 140.11C159.943 136.419 157.893 134.164 154.134 133.276L137.937 129.585C132.811 128.423 132.196 122.341 136.57 115.985L162.062 121.862Z" fill="white"/>
<path d="M182.697 299.828C182.151 299.828 181.604 299.76 181.057 299.623C174.838 298.257 168.345 289.85 166.637 280.829C165.68 275.908 166.363 271.603 168.413 269.142C169.575 267.707 171.147 266.955 172.993 266.955C173.539 266.955 174.086 267.024 174.633 267.16C180.852 268.527 187.345 276.933 189.053 285.955C190.01 290.875 189.327 295.181 187.276 297.641C186.114 299.077 184.543 299.828 182.697 299.828Z" fill="#575756"/>
<path d="M172.994 267.297C173.473 267.297 174.019 267.365 174.566 267.434C180.717 268.732 187.073 277.07 188.781 285.955C189.67 290.807 189.055 294.976 187.073 297.368C185.979 298.735 184.476 299.418 182.699 299.418C182.221 299.418 181.674 299.35 181.127 299.282C174.976 297.983 168.62 289.645 166.912 280.761C166.023 275.908 166.638 271.739 168.62 269.347C169.782 267.981 171.286 267.297 172.994 267.297ZM172.994 266.614C167.663 266.614 164.725 272.56 166.228 280.897C167.937 290.055 174.566 298.598 180.922 299.965C181.537 300.102 182.084 300.17 182.631 300.17C187.961 300.17 190.9 294.224 189.328 285.886C187.62 276.728 180.99 268.186 174.634 266.819C174.156 266.682 173.541 266.614 172.994 266.614Z" fill="#1D1D1B"/>
<path d="M164.455 281.717C162.747 272.559 166.505 266.272 172.861 267.639C179.286 269.006 185.847 277.549 187.555 286.707C189.264 295.865 185.505 302.152 179.149 300.785C172.793 299.418 166.232 290.875 164.455 281.717Z" fill="#1D1D1B"/>
<path d="M185.846 286.365C186.188 288.278 186.257 290.055 186.12 291.696C185.915 293.267 185.505 294.634 184.89 295.728C184.275 296.821 183.386 297.641 182.361 298.052C181.268 298.53 180.106 298.598 178.739 298.325C177.44 298.052 176.073 297.368 174.707 296.411C173.408 295.454 172.178 294.224 171.016 292.721C169.854 291.217 168.897 289.577 168.077 287.8C167.257 285.955 166.642 284.041 166.3 282.196C165.959 280.351 165.89 278.505 166.027 276.865C166.232 275.293 166.642 273.926 167.257 272.833C167.872 271.739 168.761 270.919 169.786 270.509C170.879 270.031 172.041 269.962 173.408 270.236C174.707 270.509 176.073 271.193 177.44 272.149C178.739 273.106 179.969 274.336 181.131 275.84C182.293 277.344 183.249 278.984 184.07 280.761C184.89 282.538 185.505 284.451 185.846 286.365ZM167.052 282.333C167.394 284.041 167.941 285.818 168.692 287.527C169.444 289.167 170.333 290.67 171.426 292.037C172.451 293.404 173.613 294.566 174.775 295.386C176.005 296.275 177.235 296.89 178.465 297.163C179.696 297.436 180.789 297.368 181.746 296.89C182.703 296.48 183.454 295.728 184.07 294.771C184.685 293.746 185.095 292.516 185.231 291.081C185.368 289.577 185.3 287.937 184.958 286.228C184.616 284.52 184.07 282.743 183.318 281.034C182.566 279.394 181.678 277.89 180.584 276.523C179.491 275.157 178.397 274.063 177.235 273.175C176.005 272.286 174.775 271.671 173.545 271.398C172.315 271.124 171.221 271.193 170.264 271.671C169.307 272.081 168.556 272.833 167.941 273.79C167.325 274.746 166.915 276.045 166.779 277.48C166.642 278.915 166.71 280.556 167.052 282.333Z" fill="white"/>
<path d="M173.48 282.948C174.232 283.904 174.71 284.93 174.916 286.092C175.121 287.253 175.052 288.142 174.574 288.825L173.959 289.85L172.865 288.484L173.48 287.458C173.754 287.048 173.822 286.502 173.685 285.886C173.549 285.203 173.275 284.588 172.865 284.041L170.952 281.581C170.337 280.829 170.131 279.736 170.473 279.12L173.48 282.948Z" fill="white"/>
<path d="M175.94 280.829C175.53 281.512 174.915 281.786 174.095 281.649C173.343 281.512 172.523 280.897 171.84 280.009L170.746 278.642L171.361 277.617L172.455 278.984C172.865 279.53 173.343 279.872 173.822 279.941C174.3 280.009 174.642 279.872 174.915 279.462L176.009 277.617C176.35 277.07 177.102 277.207 177.717 277.959L175.94 280.829Z" fill="white"/>
<path d="M178.673 285.545C177.921 284.588 177.443 283.563 177.238 282.401C177.033 281.239 177.101 280.351 177.58 279.667L178.195 278.642L179.288 280.009L178.673 281.034C178.4 281.444 178.331 281.991 178.468 282.606C178.605 283.289 178.878 283.904 179.288 284.451L181.202 286.911C181.817 287.663 182.022 288.757 181.68 289.372L178.673 285.545Z" fill="white"/>
<path d="M176.211 287.527C176.621 286.843 177.236 286.57 178.056 286.707C178.808 286.843 179.628 287.458 180.311 288.347L181.405 289.714L180.79 290.739L179.696 289.372C179.286 288.825 178.808 288.483 178.329 288.415C177.851 288.347 177.509 288.483 177.236 288.894L176.142 290.739C175.8 291.286 175.049 291.149 174.434 290.397L176.211 287.527Z" fill="white"/>
<path d="M194.729 272.218C194.182 272.218 193.635 272.149 193.088 272.013C186.869 270.646 180.376 262.24 178.668 253.218C177.711 248.298 178.394 243.992 180.445 241.532C181.607 240.096 183.179 239.345 185.024 239.345C185.571 239.345 186.117 239.413 186.664 239.55C192.883 240.916 199.376 249.323 201.084 258.344C202.041 263.265 201.358 267.57 199.308 270.031C198.146 271.466 196.574 272.218 194.729 272.218Z" fill="#575756"/>
<path d="M185.023 239.686C185.501 239.686 186.048 239.755 186.595 239.823C192.746 241.122 199.102 249.459 200.81 258.344C201.699 263.196 201.083 267.365 199.102 269.757C198.008 271.124 196.504 271.808 194.728 271.808C194.249 271.808 193.702 271.739 193.156 271.671C187.005 270.372 180.649 262.035 178.94 253.15C178.052 248.298 178.667 244.129 180.649 241.737C181.811 240.37 183.314 239.686 185.023 239.686ZM185.023 239.003C179.692 239.003 176.753 244.949 178.325 253.287C180.034 262.445 186.663 270.988 193.019 272.354C193.634 272.491 194.181 272.559 194.728 272.559C200.058 272.559 202.997 266.614 201.425 258.276C199.717 249.118 193.087 240.575 186.731 239.208C186.116 239.071 185.57 239.003 185.023 239.003Z" fill="#1D1D1B"/>
<path d="M176.486 254.107C174.778 244.949 178.537 238.661 184.893 240.028C191.317 241.395 197.878 249.938 199.586 259.096C201.295 268.254 197.536 274.541 191.18 273.175C184.824 271.808 178.195 263.265 176.486 254.107Z" fill="#1D1D1B"/>
<path d="M197.878 258.686C198.219 260.599 198.288 262.376 198.151 264.017C197.946 265.589 197.536 266.955 196.921 268.049C196.306 269.142 195.417 269.963 194.392 270.373C193.299 270.851 192.137 270.919 190.77 270.646C189.403 270.373 188.105 269.689 186.738 268.732C185.439 267.776 184.209 266.545 183.047 265.042C181.885 263.538 180.929 261.898 180.108 260.121C179.288 258.276 178.673 256.362 178.332 254.517C177.99 252.672 177.922 250.826 178.058 249.186C178.263 247.614 178.673 246.247 179.288 245.154C179.903 244.06 180.792 243.24 181.817 242.83C182.911 242.352 184.072 242.283 185.439 242.557C186.806 242.83 188.105 243.514 189.472 244.47C190.77 245.427 192 246.657 193.162 248.161C194.324 249.665 195.281 251.305 196.101 253.082C196.921 254.927 197.468 256.841 197.878 258.686ZM179.083 254.654C179.425 256.362 179.972 258.139 180.724 259.848C181.475 261.488 182.364 262.992 183.457 264.358C184.482 265.725 185.644 266.819 186.806 267.707C188.036 268.596 189.266 269.211 190.497 269.484C191.727 269.757 192.82 269.689 193.777 269.211C194.734 268.801 195.486 268.049 196.101 267.092C196.716 266.135 197.126 264.837 197.263 263.402C197.399 261.898 197.331 260.258 196.989 258.549C196.648 256.841 196.101 255.064 195.349 253.355C194.597 251.715 193.709 250.211 192.615 248.844C191.522 247.478 190.428 246.384 189.266 245.496C188.036 244.607 186.806 243.992 185.576 243.719C184.346 243.445 183.252 243.514 182.295 243.992C181.339 244.402 180.587 245.154 179.972 246.111C179.357 247.068 178.947 248.366 178.81 249.801C178.673 251.305 178.742 252.945 179.083 254.654Z" fill="white"/>
<path d="M185.437 255.269C186.189 256.225 186.668 257.251 186.873 258.412C187.078 259.506 187.009 260.463 186.531 261.146L185.916 262.171L184.822 260.804L185.437 259.779C185.711 259.369 185.779 258.822 185.642 258.139C185.506 257.456 185.232 256.84 184.822 256.294L182.909 253.833C182.294 253.082 182.089 251.988 182.43 251.373L185.437 255.269Z" fill="white"/>
<path d="M187.971 253.218C187.561 253.902 186.946 254.175 186.126 254.038C185.374 253.902 184.554 253.287 183.871 252.398L182.777 251.031L183.392 250.006L184.486 251.373C184.896 251.92 185.374 252.261 185.853 252.33C186.331 252.398 186.673 252.261 186.946 251.851L188.04 250.006C188.382 249.459 189.133 249.596 189.748 250.348L187.971 253.218Z" fill="white"/>
<path d="M190.634 257.934C189.882 256.977 189.404 255.952 189.199 254.79C188.994 253.697 189.062 252.74 189.541 252.056L190.156 251.031L191.249 252.398L190.634 253.423C190.361 253.833 190.292 254.38 190.429 255.063C190.566 255.747 190.839 256.362 191.249 256.909L193.163 259.369C193.778 260.121 193.983 261.214 193.641 261.829L190.634 257.934Z" fill="white"/>
<path d="M188.242 259.916C188.652 259.233 189.267 258.959 190.087 259.096C190.839 259.233 191.659 259.848 192.342 260.736L193.436 262.103L192.821 263.128L191.727 261.761C191.317 261.214 190.839 260.873 190.36 260.804C189.882 260.736 189.54 260.873 189.267 261.283L188.173 263.128C187.832 263.675 187.08 263.538 186.465 262.786L188.242 259.916Z" fill="white"/>
<mask id="mask1_12363_23106" style="mask-type:luminance" maskUnits="userSpaceOnUse" x="158" y="309" width="34" height="53">
<path d="M163.29 346.302L190.149 361.816L191.516 318.76L163.837 309.943L158.848 316.368L163.29 346.302Z" fill="white"/>
</mask>
<g mask="url(#mask1_12363_23106)">
<path d="M180.171 358.399C179.282 358.399 178.394 358.194 177.437 357.783C171.559 355.323 166.707 345.823 166.707 336.665C166.707 332.018 167.937 328.122 170.124 325.935C171.354 324.705 172.79 324.09 174.361 324.09C175.25 324.09 176.138 324.295 177.095 324.705C182.973 327.166 187.825 336.665 187.825 345.823C187.825 350.471 186.595 354.366 184.408 356.553C183.246 357.783 181.743 358.399 180.171 358.399Z" fill="#575756"/>
<path d="M174.364 324.432C175.184 324.432 176.073 324.637 176.961 324.979C182.771 327.371 187.486 336.734 187.486 345.823C187.486 350.334 186.256 354.161 184.137 356.28C182.976 357.442 181.609 358.057 180.105 358.057C179.285 358.057 178.397 357.852 177.508 357.51C171.699 355.118 166.983 345.755 166.983 336.665C166.983 332.155 168.213 328.328 170.332 326.209C171.494 324.979 172.861 324.432 174.364 324.432ZM174.364 323.749C169.717 323.749 166.3 328.874 166.368 336.665C166.368 345.96 171.289 355.596 177.303 358.125C178.328 358.535 179.285 358.74 180.174 358.74C184.821 358.74 188.238 353.615 188.17 345.823C188.17 336.529 183.249 326.892 177.235 324.364C176.21 323.954 175.253 323.749 174.364 323.749Z" fill="#1D1D1B"/>
<path d="M164.461 337.144C164.461 327.849 169.313 322.313 175.328 324.842C181.342 327.371 186.262 337.007 186.262 346.302C186.262 355.597 181.41 361.132 175.396 358.604C169.313 356.075 164.461 346.507 164.461 337.144Z" fill="#1D1D1B"/>
<path d="M184.556 345.618C184.556 347.532 184.283 349.309 183.873 350.881C183.394 352.384 182.779 353.614 181.891 354.571C181.071 355.528 180.046 356.143 178.952 356.417C177.79 356.69 176.628 356.553 175.33 356.006C174.1 355.46 172.869 354.571 171.708 353.409C170.614 352.248 169.589 350.812 168.769 349.104C167.949 347.464 167.265 345.618 166.787 343.705C166.309 341.723 166.035 339.741 166.035 337.827C166.035 335.914 166.309 334.137 166.719 332.565C167.197 331.061 167.812 329.831 168.701 328.874C169.589 327.917 170.546 327.302 171.639 327.029C172.801 326.756 173.963 326.892 175.262 327.439C176.492 327.986 177.722 328.874 178.884 330.036C179.977 331.198 181.002 332.633 181.822 334.342C182.643 335.982 183.326 337.827 183.804 339.741C184.351 341.723 184.556 343.705 184.556 345.618ZM166.855 338.169C166.855 339.946 167.06 341.723 167.539 343.568C167.949 345.277 168.564 346.985 169.384 348.489C170.136 349.992 171.093 351.359 172.118 352.453C173.143 353.546 174.236 354.366 175.398 354.845C176.56 355.323 177.654 355.46 178.679 355.186C179.704 354.981 180.592 354.366 181.344 353.478C182.096 352.589 182.711 351.427 183.121 350.061C183.531 348.625 183.804 346.985 183.804 345.208C183.804 343.431 183.599 341.654 183.121 339.809C182.711 338.101 182.096 336.392 181.276 334.888C180.456 333.385 179.567 332.018 178.542 330.924C177.517 329.831 176.423 329.011 175.262 328.532C174.1 328.054 173.006 327.917 171.981 328.191C170.956 328.396 170.067 329.011 169.316 329.899C168.564 330.788 167.949 331.95 167.539 333.316C167.06 334.752 166.855 336.392 166.855 338.169Z" fill="white"/>
<path d="M173.003 339.946C173.55 341.04 173.823 342.133 173.823 343.295C173.823 344.457 173.55 345.345 173.003 345.892L172.183 346.78L171.363 345.208L172.183 344.32C172.525 343.978 172.661 343.431 172.661 342.748C172.661 342.065 172.525 341.45 172.183 340.766L170.748 338.032C170.338 337.144 170.269 336.05 170.748 335.572L173.003 339.946Z" fill="white"/>
<path d="M175.804 338.374C175.257 338.989 174.642 339.126 173.89 338.852C173.138 338.579 172.523 337.827 171.976 336.802L171.156 335.23L171.976 334.342L172.797 335.914C173.138 336.529 173.48 336.939 173.89 337.144C174.3 337.349 174.71 337.212 175.052 336.871L176.419 335.299C176.829 334.82 177.581 335.094 178.059 335.982L175.804 338.374Z" fill="white"/>
<path d="M177.656 343.5C177.109 342.406 176.836 341.313 176.836 340.151C176.836 338.989 177.109 338.101 177.656 337.554L178.476 336.665L179.296 338.237L178.476 339.126C178.134 339.467 177.998 340.014 177.998 340.698C177.998 341.381 178.134 341.996 178.476 342.68L179.911 345.413C180.321 346.302 180.39 347.395 179.911 347.874L177.656 343.5Z" fill="white"/>
<path d="M174.919 345.003C175.466 344.388 176.081 344.252 176.833 344.525C177.585 344.798 178.2 345.55 178.747 346.575L179.567 348.147L178.747 349.036L177.927 347.464C177.585 346.849 177.243 346.439 176.833 346.233C176.423 346.028 176.013 346.165 175.671 346.507L174.304 348.079C173.894 348.557 173.142 348.284 172.664 347.395L174.919 345.003Z" fill="white"/>
</g>
<defs>
<clipPath id="clip0_12363_23106">
<rect width="177.939" height="276.155" fill="white" transform="matrix(-0.477441 -0.878664 -0.983794 0.179303 357.004 493.486)"/>
</clipPath>
<clipPath id="clip1_12363_23106">
<rect width="177.939" height="276.155" fill="white" transform="matrix(-0.477441 -0.878664 -0.983794 0.179303 357.004 486.529)"/>
</clipPath>
<clipPath id="clip2_12363_23106">
<rect width="177.939" height="276.155" fill="white" transform="matrix(-0.477441 -0.878664 -0.983794 0.179303 357.004 486.529)"/>
</clipPath>
<clipPath id="clip3_12363_23106">
<rect width="143.396" height="222.546" fill="white" transform="matrix(-0.477441 -0.878664 -0.983794 0.179303 322.074 429.852)"/>
</clipPath>
<clipPath id="clip4_12363_23106">
<rect width="43.8525" height="25.3027" fill="white" transform="translate(156.84 337.663)"/>
</clipPath>
</defs>
</svg>
